<svg version="1.1" id="Layer_1" xmlns="http://www.w3.org/2000/svg" xmlns:xlink="http://www.w3.org/1999/xlink" x="0px" y="0px"
	 width="100%" viewBox="0 0 2787 862" enable-background="new 0 0 2787 862" xml:space="preserve">
<path fill="#FFFFFF" opacity="1.000000" stroke="none" 
	d="
M1126.000000,863.000000 
	C830.967285,863.000000 535.934570,863.000000 240.611588,862.594299 
	C249.007126,861.104309 257.701965,860.087585 266.376831,858.922180 
	C286.819214,856.175903 306.194092,849.802124 324.736969,840.975525 
	C351.135803,828.409424 373.723541,810.951538 391.767731,787.765442 
	C404.809937,771.006775 415.177521,752.704346 421.845184,732.621704 
	C429.704865,708.948792 435.946625,684.854980 434.127563,659.435242 
	C433.872406,655.869934 435.914185,652.182251 435.916565,648.550598 
	C436.014404,499.886169 436.000183,351.221649 436.000183,202.557159 
	C436.000183,200.764099 436.000183,198.971024 436.000183,197.022858 
	C434.380829,197.022858 433.182709,196.806564 432.090668,197.055496 
	C417.103546,200.472000 402.552582,205.071411 388.728729,211.982635 
	C364.925598,223.883041 344.312408,239.496933 328.949249,261.540955 
	C310.111938,288.569916 301.637604,318.756165 301.057159,351.468170 
	C300.634857,375.270599 302.883484,399.179199 298.935760,422.847015 
	C296.445526,437.776825 289.839783,450.880157 279.496643,461.995331 
	C265.400085,477.144135 248.305008,485.940002 227.473022,488.226379 
	C216.303818,489.452271 205.928787,487.604523 195.696091,484.123016 
	C182.004547,479.464722 170.458176,471.557129 160.850357,460.512939 
	C148.742035,446.594391 141.394943,430.348053 141.185364,412.358795 
	C140.465103,350.534760 140.886887,288.697144 140.931580,226.864761 
	C140.939636,215.722107 132.871887,207.075089 121.617020,207.038971 
	C87.784523,206.930374 53.945740,206.652603 20.122084,207.209976 
	C9.884395,207.378677 2.140691,214.379944 2.128100,224.767990 
	C2.050327,288.933594 2.014317,353.099579 2.176529,417.264893 
	C2.199619,426.398407 2.668110,435.646698 4.166939,444.635712 
	C7.027834,461.793579 11.369398,478.579437 17.900352,494.843567 
	C29.852095,524.607056 46.959110,550.619873 70.717651,572.323181 
	C87.599098,587.744263 106.450035,599.819458 127.672752,608.239624 
	C144.333694,614.849854 161.670670,618.902771 179.502350,619.837769 
	C194.239807,620.610474 208.982437,620.033386 223.657288,617.113098 
	C238.336823,614.191895 252.530609,610.048828 265.884064,603.449158 
	C275.732178,598.582031 285.106995,592.757080 294.903900,587.239929 
	C294.963501,587.972595 295.092133,588.753540 295.080872,589.532471 
	C294.728973,613.934509 294.659546,638.346375 293.833191,662.732605 
	C293.558258,670.846375 292.074432,679.104614 289.843933,686.926270 
	C285.801849,701.100403 278.395782,713.637268 266.546906,722.669128 
	C253.608032,732.531677 238.230789,736.229614 222.256210,736.897095 
	C209.054413,737.448792 196.061127,735.885132 183.205338,732.164062 
	C161.241241,725.806396 147.231873,712.230408 142.008545,689.849548 
	C141.248398,686.592468 140.389145,683.329834 140.000320,680.019897 
	C138.605560,668.146912 128.831284,664.145325 119.869392,664.084412 
	C88.037994,663.867920 56.203873,664.083923 24.371561,663.950623 
	C14.342166,663.908630 6.042603,666.648254 1.000000,676.000000 
	C1.000000,451.028137 1.000000,226.056305 1.000000,1.000000 
	C846.366028,1.000000 1691.732056,1.000000 2537.549072,1.468657 
	C2538.000000,64.249802 2537.936279,126.562469 2538.116943,188.874435 
	C2538.132080,194.050751 2536.586182,195.263016 2531.624023,195.208054 
	C2508.634277,194.953461 2485.633545,195.430588 2462.651367,194.941116 
	C2452.491943,194.724747 2444.044678,205.266312 2444.050293,213.598984 
	C2444.063477,233.258331 2443.952881,252.918365 2444.115967,272.576233 
	C2444.135986,274.984741 2445.200439,277.546844 2446.332275,279.755035 
	C2450.640381,288.157959 2458.169678,290.968079 2467.058350,290.985626 
	C2489.217773,291.029388 2511.376953,290.995697 2533.536377,291.010162 
	C2534.968994,291.011108 2536.401367,291.157349 2538.000000,291.245117 
	C2538.000000,293.083313 2537.994141,294.564789 2538.000732,296.046234 
	C2538.333008,371.436432 2538.478027,446.828583 2539.270996,522.213928 
	C2539.357178,530.396729 2542.205811,538.965698 2545.508545,546.605225 
	C2550.883301,559.037354 2559.423096,569.370178 2569.721191,578.438354 
	C2580.260254,587.718933 2591.790527,595.369141 2604.052979,601.943787 
	C2625.125488,613.242004 2647.692871,620.737732 2670.710205,626.872803 
	C2678.196045,628.868103 2685.903564,630.032532 2694.085938,631.693970 
	C2694.085938,517.433167 2694.085938,404.385681 2694.085938,291.000061 
	C2696.078857,291.000061 2697.707764,291.000061 2699.336670,291.000061 
	C2720.662842,291.000061 2741.991455,290.814880 2763.314453,291.073914 
	C2774.923340,291.214935 2783.481934,287.105530 2788.000000,276.000000 
	C2788.000000,471.631622 2788.000000,667.263245 2788.000000,863.000000 
	C2236.300537,863.000000 1684.601196,863.000000 1132.344238,862.541626 
	C1131.826050,860.252319 1131.899658,858.421265 1131.899780,856.590271 
	C1131.905396,770.607239 1131.904663,684.624207 1131.904663,598.641174 
	C1131.904663,596.845093 1131.904663,595.049011 1131.904663,593.302490 
	C1132.583618,593.200073 1132.952881,593.024902 1133.214966,593.126587 
	C1134.113770,593.475403 1135.043457,593.817383 1135.840210,594.345154 
	C1159.427002,609.969482 1185.825806,617.567932 1213.615601,619.707397 
	C1226.778320,620.720825 1240.208374,618.950500 1253.467896,617.847839 
	C1270.585327,616.424255 1286.705078,610.880615 1301.966187,603.380737 
	C1327.351929,590.905396 1349.181396,573.849670 1367.061157,551.633972 
	C1382.362427,532.622253 1394.012329,511.740601 1402.513916,488.983734 
	C1409.905151,469.199310 1414.316406,448.644012 1415.745728,427.693512 
	C1416.710449,413.553864 1415.665283,399.225800 1414.775391,385.028595 
	C1414.161743,375.236542 1413.078125,365.332825 1410.805908,355.812805 
	C1404.406738,329.001953 1394.148193,303.733612 1378.424927,280.879425 
	C1369.248169,267.540771 1359.428711,254.672913 1346.784668,244.473541 
	C1335.842896,235.647385 1324.730103,226.805206 1312.728638,219.569824 
	C1290.129761,205.945526 1265.019165,199.295944 1238.840454,197.099274 
	C1223.413330,195.804794 1207.899048,197.158936 1192.830078,200.270691 
	C1174.684204,204.017822 1157.169189,210.026779 1140.934692,219.444275 
	C1127.531982,227.219025 1115.097046,236.127960 1103.700562,246.640091 
	C1098.225342,251.690399 1091.943237,255.865707 1086.187256,260.313141 
	C1075.288940,245.651184 1059.784546,231.098770 1041.254639,219.516113 
	C1022.985901,208.096680 1003.415527,200.853729 981.999878,196.591080 
	C981.999878,199.292831 981.999878,201.105270 981.999878,202.917709 
	C981.999878,385.548340 981.993286,568.178955 982.042725,750.809570 
	C982.043823,754.872864 982.264099,759.023804 983.093750,762.984863 
	C988.217590,787.447266 1002.678589,805.550720 1022.372559,820.044556 
	C1034.992920,829.332520 1048.414673,837.283325 1063.022949,842.896606 
	C1076.406982,848.039429 1090.064331,852.496216 1103.707153,856.929749 
	C1111.023071,859.307190 1118.561768,860.998901 1126.000000,863.000000 
M2216.664307,607.012085 
	C2223.462891,603.824402 2230.392090,600.885071 2237.033203,597.397278 
	C2250.609863,590.267273 2262.908691,581.275940 2273.879639,570.558716 
	C2279.295898,565.267578 2284.382812,559.639526 2289.616699,554.161865 
	C2313.992188,588.257935 2371.416260,623.561951 2395.753418,619.427246 
	C2395.753418,478.660553 2395.753418,337.896851 2395.753418,196.371643 
	C2351.687988,205.357101 2316.175049,227.062653 2289.770020,262.673401 
	C2281.793945,254.899628 2274.594971,246.863052 2266.342041,240.115463 
	C2257.373535,232.782669 2247.802002,226.010956 2237.829102,220.118546 
	C2214.211182,206.163910 2188.222412,199.273010 2161.048096,197.114868 
	C2145.787354,195.902863 2130.425537,197.049896 2115.511963,200.380737 
	C2097.745605,204.348694 2080.604980,210.320053 2064.712402,219.626907 
	C2044.516113,231.453888 2026.425903,245.788757 2011.699951,263.962402 
	C1999.317505,279.244110 1988.930908,295.819061 1980.889771,313.943726 
	C1970.570557,337.203369 1964.602417,361.504120 1962.182495,386.641663 
	C1961.101562,397.870789 1961.475830,409.321442 1962.144897,420.614960 
	C1962.833740,432.243561 1964.281738,443.867737 1966.120361,455.378357 
	C1969.109375,474.091125 1975.274780,491.900604 1983.511719,508.920197 
	C1991.848999,526.146729 2001.687744,542.529724 2015.031738,556.392090 
	C2024.240356,565.958618 2033.649902,575.479980 2043.951172,583.807434 
	C2055.820312,593.402527 2069.207275,600.881714 2083.384033,606.800232 
	C2101.479248,614.354553 2120.345703,619.001221 2139.855713,619.782776 
	C2151.939453,620.266846 2164.126465,618.848267 2176.234375,617.874573 
	C2190.068359,616.762268 2203.160889,612.514404 2216.664307,607.012085 
M1514.426147,262.056213 
	C1513.932617,262.885529 1513.476685,263.739960 1512.940186,264.540344 
	C1504.686523,276.849182 1495.761719,288.767761 1488.340820,301.558929 
	C1480.388550,315.265686 1475.154053,330.282623 1470.964355,345.624146 
	C1466.480713,362.042084 1463.524048,378.720184 1463.125244,395.704193 
	C1462.842163,407.757446 1463.307739,419.869843 1464.219482,431.896667 
	C1464.973755,441.845551 1466.162476,451.871246 1468.403198,461.575531 
	C1473.532104,483.786835 1481.518433,505.014465 1493.278198,524.643677 
	C1503.848877,542.287720 1516.198608,558.454346 1531.635376,572.318359 
	C1548.521362,587.483948 1567.112305,599.651123 1588.194580,608.017517 
	C1605.948120,615.062866 1624.378662,619.205322 1643.449707,619.888428 
	C1651.827148,620.188477 1660.316650,619.816589 1668.632446,618.772400 
	C1679.274780,617.436096 1689.931641,615.670776 1700.333374,613.087708 
	C1716.884888,608.977478 1732.179688,601.715088 1746.715454,592.768677 
	C1763.522339,582.424438 1777.501587,568.958496 1790.779053,554.051331 
	C1817.614136,589.425842 1852.535889,612.075562 1896.797607,620.457520 
	C1896.797607,478.520050 1896.797607,337.888763 1896.797607,196.609512 
	C1875.574219,200.754974 1856.113159,208.144394 1837.936157,219.409042 
	C1819.307861,230.953354 1804.150391,246.070328 1791.119507,262.414642 
	C1781.508911,253.238129 1772.702881,243.454758 1762.503540,235.445663 
	C1750.283936,225.850250 1736.926147,217.836075 1722.434937,211.651749 
	C1702.698120,203.228745 1682.182007,198.562836 1660.948120,197.121414 
	C1647.368286,196.199585 1633.844849,197.575592 1620.354980,199.933441 
	C1596.755615,204.058212 1575.379761,213.346939 1555.374390,226.156479 
	C1540.128540,235.918533 1527.227173,248.390671 1514.426147,262.056213 
M556.486572,552.991577 
	C562.381409,558.549683 567.826843,564.707397 574.268616,569.535828 
	C586.134766,578.429993 598.157898,587.267944 610.901367,594.799927 
	C627.200378,604.433533 645.101807,610.727356 663.600403,614.722656 
	C675.075378,617.201111 686.802368,619.109436 698.503296,619.802185 
	C714.853333,620.770020 731.109558,619.256897 747.334717,616.130920 
	C768.434692,612.065674 788.312439,605.146545 807.168823,594.988892 
	C828.229431,583.643738 846.894104,569.338501 863.061096,551.606140 
	C874.384888,539.185974 884.241394,525.799805 892.317505,511.135620 
	C900.365173,496.523193 906.382629,481.100403 911.202332,465.052948 
	C916.035583,448.960358 917.024902,432.428345 918.755798,416.006927 
	C919.764160,406.439819 918.332153,396.615417 917.998474,386.906799 
	C917.992737,386.740326 918.014709,386.569366 917.984680,386.407806 
	C916.639343,379.161041 915.108276,371.943329 913.976196,364.663544 
	C911.147522,346.475250 904.675232,329.389801 896.421997,313.232788 
	C884.391418,289.680878 868.813416,268.608582 848.689880,250.968155 
	C834.956238,238.929062 820.283997,228.299667 804.058533,220.242935 
	C791.671448,214.092148 778.436218,209.466309 765.257263,205.139908 
	C748.926941,199.778992 731.877808,197.628433 714.737366,197.084808 
	C696.933105,196.520142 679.449463,198.849854 662.000244,202.838333 
	C642.284119,207.344986 623.726746,214.579575 606.349121,224.469315 
	C584.650391,236.818237 565.524719,252.564209 549.491272,271.938293 
	C537.504333,286.422791 527.469666,302.006378 519.367859,319.015350 
	C508.476471,341.880676 502.328918,366.018097 500.284515,390.996704 
	C499.075714,405.765808 499.266083,420.970673 501.396698,435.605499 
	C503.727264,451.613617 507.940002,467.566040 513.262573,482.871552 
	C522.362488,509.039429 537.252563,532.035583 556.486572,552.991577 
z"/>
<path fill="#000000" opacity="1.000000" stroke="none" 
	d="
M1.000000,676.468628 
	C6.042603,666.648254 14.342166,663.908630 24.371561,663.950623 
	C56.203873,664.083923 88.037994,663.867920 119.869392,664.084412 
	C128.831284,664.145325 138.605560,668.146912 140.000320,680.019897 
	C140.389145,683.329834 141.248398,686.592468 142.008545,689.849548 
	C147.231873,712.230408 161.241241,725.806396 183.205338,732.164062 
	C196.061127,735.885132 209.054413,737.448792 222.256210,736.897095 
	C238.230789,736.229614 253.608032,732.531677 266.546906,722.669128 
	C278.395782,713.637268 285.801849,701.100403 289.843933,686.926270 
	C292.074432,679.104614 293.558258,670.846375 293.833191,662.732605 
	C294.659546,638.346375 294.728973,613.934509 295.080872,589.532471 
	C295.092133,588.753540 294.963501,587.972595 294.903900,587.239929 
	C285.106995,592.757080 275.732178,598.582031 265.884064,603.449158 
	C252.530609,610.048828 238.336823,614.191895 223.657288,617.113098 
	C208.982437,620.033386 194.239807,620.610474 179.502350,619.837769 
	C161.670670,618.902771 144.333694,614.849854 127.672752,608.239624 
	C106.450035,599.819458 87.599098,587.744263 70.717651,572.323181 
	C46.959110,550.619873 29.852095,524.607056 17.900352,494.843567 
	C11.369398,478.579437 7.027834,461.793579 4.166939,444.635712 
	C2.668110,435.646698 2.199619,426.398407 2.176529,417.264893 
	C2.014317,353.099579 2.050327,288.933594 2.128100,224.767990 
	C2.140691,214.379944 9.884395,207.378677 20.122084,207.209976 
	C53.945740,206.652603 87.784523,206.930374 121.617020,207.038971 
	C132.871887,207.075089 140.939636,215.722107 140.931580,226.864761 
	C140.886887,288.697144 140.465103,350.534760 141.185364,412.358795 
	C141.394943,430.348053 148.742035,446.594391 160.850357,460.512939 
	C170.458176,471.557129 182.004547,479.464722 195.696091,484.123016 
	C205.928787,487.604523 216.303818,489.452271 227.473022,488.226379 
	C248.305008,485.940002 265.400085,477.144135 279.496643,461.995331 
	C289.839783,450.880157 296.445526,437.776825 298.935760,422.847015 
	C302.883484,399.179199 300.634857,375.270599 301.057159,351.468170 
	C301.637604,318.756165 310.111938,288.569916 328.949249,261.540955 
	C344.312408,239.496933 364.925598,223.883041 388.728729,211.982635 
	C402.552582,205.071411 417.103546,200.472000 432.090668,197.055496 
	C433.182709,196.806564 434.380829,197.022858 436.000183,197.022858 
	C436.000183,198.971024 436.000183,200.764099 436.000183,202.557159 
	C436.000183,351.221649 436.014404,499.886169 435.916565,648.550598 
	C435.914185,652.182251 433.872406,655.869934 434.127563,659.435242 
	C435.946625,684.854980 429.704865,708.948792 421.845184,732.621704 
	C415.177521,752.704346 404.809937,771.006775 391.767731,787.765442 
	C373.723541,810.951538 351.135803,828.409424 324.736969,840.975525 
	C306.194092,849.802124 286.819214,856.175903 266.376831,858.922180 
	C257.701965,860.087585 249.007126,861.104309 240.160675,862.594299 
	C237.299988,863.000000 234.599976,863.000000 231.158081,862.700073 
	C224.315475,862.266296 218.213791,862.004822 212.114502,862.052551 
	C209.074051,862.076294 206.038025,862.666199 203.000000,863.000000 
	C199.969406,863.000000 196.938812,863.000000 193.293381,862.594238 
	C188.291275,861.762695 183.876694,861.520874 179.522049,860.875000 
	C168.403503,859.226074 157.148468,858.083435 146.244476,855.491272 
	C126.004013,850.679504 106.577148,843.472290 88.511330,832.911072 
	C66.459885,820.019958 47.610191,803.714417 32.975338,782.565186 
	C18.369041,761.457214 8.696327,738.417114 4.001783,713.219727 
	C3.174779,708.780823 2.009226,704.404968 1.000005,700.000000 
	C1.000000,692.312439 1.000000,684.624817 1.000000,676.468628 
M295.514374,585.406250 
	C295.514374,585.406250 295.592743,585.544739 295.514374,585.406250 
z"/>
<path fill="#000000" opacity="1.000000" stroke="none" 
	d="
M1126.428467,863.000000 
	C1118.561768,860.998901 1111.023071,859.307190 1103.707153,856.929749 
	C1090.064331,852.496216 1076.406982,848.039429 1063.022949,842.896606 
	C1048.414673,837.283325 1034.992920,829.332520 1022.372559,820.044556 
	C1002.678589,805.550720 988.217590,787.447266 983.093750,762.984863 
	C982.264099,759.023804 982.043823,754.872864 982.042725,750.809570 
	C981.993286,568.178955 981.999878,385.548340 981.999878,202.917709 
	C981.999878,201.105270 981.999878,199.292831 981.999878,196.591080 
	C1003.415527,200.853729 1022.985901,208.096680 1041.254639,219.516113 
	C1059.784546,231.098770 1075.288940,245.651184 1086.187256,260.313141 
	C1091.943237,255.865707 1098.225342,251.690399 1103.700562,246.640091 
	C1115.097046,236.127960 1127.531982,227.219025 1140.934692,219.444275 
	C1157.169189,210.026779 1174.684204,204.017822 1192.830078,200.270691 
	C1207.899048,197.158936 1223.413330,195.804794 1238.840454,197.099274 
	C1265.019165,199.295944 1290.129761,205.945526 1312.728638,219.569824 
	C1324.730103,226.805206 1335.842896,235.647385 1346.784668,244.473541 
	C1359.428711,254.672913 1369.248169,267.540771 1378.424927,280.879425 
	C1394.148193,303.733612 1404.406738,329.001953 1410.805908,355.812805 
	C1413.078125,365.332825 1414.161743,375.236542 1414.775391,385.028595 
	C1415.665283,399.225800 1416.710449,413.553864 1415.745728,427.693512 
	C1414.316406,448.644012 1409.905151,469.199310 1402.513916,488.983734 
	C1394.012329,511.740601 1382.362427,532.622253 1367.061157,551.633972 
	C1349.181396,573.849670 1327.351929,590.905396 1301.966187,603.380737 
	C1286.705078,610.880615 1270.585327,616.424255 1253.467896,617.847839 
	C1240.208374,618.950500 1226.778320,620.720825 1213.615601,619.707397 
	C1185.825806,617.567932 1159.427002,609.969482 1135.840210,594.345154 
	C1135.043457,593.817383 1134.113770,593.475403 1133.214966,593.126587 
	C1132.952881,593.024902 1132.583618,593.200073 1131.904663,593.302490 
	C1131.904663,595.049011 1131.904663,596.845093 1131.904663,598.641174 
	C1131.904663,684.624207 1131.905396,770.607239 1131.899780,856.590271 
	C1131.899658,858.421265 1131.826050,860.252319 1131.893311,862.541626 
	C1130.285645,863.000000 1128.571289,863.000000 1126.428467,863.000000 
M1214.181641,487.031616 
	C1230.935669,481.853577 1245.805298,473.991089 1257.492920,460.241608 
	C1268.772339,446.972260 1275.192017,431.788940 1276.789429,414.882416 
	C1278.308472,398.805145 1274.696045,383.396057 1266.073486,369.410950 
	C1248.910522,341.574615 1224.508545,327.330139 1191.328735,328.921570 
	C1181.313354,329.401917 1171.993774,332.146698 1163.199585,336.446991 
	C1144.522217,345.579895 1131.257690,360.155457 1123.388062,379.289581 
	C1117.319458,394.045013 1115.956543,409.503174 1119.612061,425.146729 
	C1123.984741,443.859894 1133.504028,459.290070 1148.723633,471.364044 
	C1162.783081,482.517670 1178.851807,487.770325 1196.379761,488.843445 
	C1201.962769,489.185242 1207.658691,487.684235 1214.181641,487.031616 
z"/>
<path fill="#000000" opacity="1.000000" stroke="none" 
	d="
M2788.000000,275.600006 
	C2783.481934,287.105530 2774.923340,291.214935 2763.314453,291.073914 
	C2741.991455,290.814880 2720.662842,291.000061 2699.336670,291.000061 
	C2697.707764,291.000061 2696.078857,291.000061 2694.085938,291.000061 
	C2694.085938,404.385681 2694.085938,517.433167 2694.085938,631.693970 
	C2685.903564,630.032532 2678.196045,628.868103 2670.710205,626.872803 
	C2647.692871,620.737732 2625.125488,613.242004 2604.052979,601.943787 
	C2591.790527,595.369141 2580.260254,587.718933 2569.721191,578.438354 
	C2559.423096,569.370178 2550.883301,559.037354 2545.508545,546.605225 
	C2542.205811,538.965698 2539.357178,530.396729 2539.270996,522.213928 
	C2538.478027,446.828583 2538.333008,371.436432 2538.000732,296.046234 
	C2537.994141,294.564789 2538.000000,293.083313 2538.000000,291.245117 
	C2536.401367,291.157349 2534.968994,291.011108 2533.536377,291.010162 
	C2511.376953,290.995697 2489.217773,291.029388 2467.058350,290.985626 
	C2458.169678,290.968079 2450.640381,288.157959 2446.332275,279.755035 
	C2445.200439,277.546844 2444.135986,274.984741 2444.115967,272.576233 
	C2443.952881,252.918365 2444.063477,233.258331 2444.050293,213.598984 
	C2444.044678,205.266312 2452.491943,194.724747 2462.651367,194.941116 
	C2485.633545,195.430588 2508.634277,194.953461 2531.624023,195.208054 
	C2536.586182,195.263016 2538.132080,194.050751 2538.116943,188.874435 
	C2537.936279,126.562469 2538.000000,64.249802 2538.000000,1.468657 
	C2540.370605,1.000000 2542.741211,1.000000 2545.666992,1.375159 
	C2546.708740,1.834939 2547.212891,1.864138 2547.679443,2.012084 
	C2575.747314,10.913535 2603.090820,21.555914 2628.678711,36.289494 
	C2645.460205,45.952412 2661.196045,56.869026 2674.252441,71.545799 
	C2687.978760,86.975685 2694.334717,104.619423 2694.063477,125.115486 
	C2693.779053,146.610748 2694.121582,168.113953 2693.900879,189.610718 
	C2693.854736,194.106400 2695.307129,195.219055 2699.615723,195.185059 
	C2723.446533,194.996964 2747.279541,195.080200 2771.111816,195.124680 
	C2772.508057,195.127289 2773.906006,195.589249 2775.298340,195.862396 
	C2782.117432,197.199860 2784.738770,202.935883 2788.000000,208.000000 
	C2788.000000,209.066666 2788.000000,210.133347 2787.690430,211.883072 
	C2787.255859,213.211380 2787.023193,213.856506 2787.022461,214.501907 
	C2787.000977,232.449570 2786.982910,250.397293 2787.042969,268.344727 
	C2787.047119,269.564209 2787.666748,270.781616 2788.000000,272.000000 
	C2788.000000,273.066681 2788.000000,274.133331 2788.000000,275.600006 
z"/>
<path fill="#FFFFFF" opacity="1.000000" stroke="none" 
	d="
M2788.000000,207.531342 
	C2784.738770,202.935883 2782.117432,197.199860 2775.298340,195.862396 
	C2773.906006,195.589249 2772.508057,195.127289 2771.111816,195.124680 
	C2747.279541,195.080200 2723.446533,194.996964 2699.615723,195.185059 
	C2695.307129,195.219055 2693.854736,194.106400 2693.900879,189.610718 
	C2694.121582,168.113953 2693.779053,146.610748 2694.063477,125.115486 
	C2694.334717,104.619423 2687.978760,86.975685 2674.252441,71.545799 
	C2661.196045,56.869026 2645.460205,45.952412 2628.678711,36.289494 
	C2603.090820,21.555914 2575.747314,10.913535 2547.679443,2.012084 
	C2547.212891,1.864138 2546.708740,1.834939 2546.111084,1.375159 
	C2626.587891,1.000000 2707.176025,1.000000 2788.000000,1.000000 
	C2788.000000,69.687378 2788.000000,138.375031 2788.000000,207.531342 
z"/>
<path fill="#FFFFFF" opacity="1.000000" stroke="none" 
	d="
M1.000005,700.468628 
	C2.009226,704.404968 3.174779,708.780823 4.001783,713.219727 
	C8.696327,738.417114 18.369041,761.457214 32.975338,782.565186 
	C47.610191,803.714417 66.459885,820.019958 88.511330,832.911072 
	C106.577148,843.472290 126.004013,850.679504 146.244476,855.491272 
	C157.148468,858.083435 168.403503,859.226074 179.522049,860.875000 
	C183.876694,861.520874 188.291275,861.762695 192.839264,862.594238 
	C129.078949,863.000000 65.157906,863.000000 1.000000,863.000000 
	C1.000000,808.979309 1.000000,754.958313 1.000005,700.468628 
z"/>
<path fill="#272728" opacity="1.000000" stroke="none" 
	d="
M2788.000000,271.531311 
	C2787.666748,270.781616 2787.047119,269.564209 2787.042969,268.344727 
	C2786.982910,250.397293 2787.000977,232.449570 2787.022461,214.501907 
	C2787.023193,213.856506 2787.255859,213.211380 2787.690430,212.283066 
	C2788.000000,231.687561 2788.000000,251.375122 2788.000000,271.531311 
z"/>
<path fill="#272728" opacity="1.000000" stroke="none" 
	d="
M203.468658,863.000000 
	C206.038025,862.666199 209.074051,862.076294 212.114502,862.052551 
	C218.213791,862.004822 224.315475,862.266296 230.708099,862.700073 
	C221.979111,863.000000 212.958206,863.000000 203.468658,863.000000 
z"/>
<path fill="#000000" opacity="1.000000" stroke="none" 
	d="
M2216.337402,607.245483 
	C2203.160889,612.514404 2190.068359,616.762268 2176.234375,617.874573 
	C2164.126465,618.848267 2151.939453,620.266846 2139.855713,619.782776 
	C2120.345703,619.001221 2101.479248,614.354553 2083.384033,606.800232 
	C2069.207275,600.881714 2055.820312,593.402527 2043.951172,583.807434 
	C2033.649902,575.479980 2024.240356,565.958618 2015.031738,556.392090 
	C2001.687744,542.529724 1991.848999,526.146729 1983.511719,508.920197 
	C1975.274780,491.900604 1969.109375,474.091125 1966.120361,455.378357 
	C1964.281738,443.867737 1962.833740,432.243561 1962.144897,420.614960 
	C1961.475830,409.321442 1961.101562,397.870789 1962.182495,386.641663 
	C1964.602417,361.504120 1970.570557,337.203369 1980.889771,313.943726 
	C1988.930908,295.819061 1999.317505,279.244110 2011.699951,263.962402 
	C2026.425903,245.788757 2044.516113,231.453888 2064.712402,219.626907 
	C2080.604980,210.320053 2097.745605,204.348694 2115.511963,200.380737 
	C2130.425537,197.049896 2145.787354,195.902863 2161.048096,197.114868 
	C2188.222412,199.273010 2214.211182,206.163910 2237.829102,220.118546 
	C2247.802002,226.010956 2257.373535,232.782669 2266.342041,240.115463 
	C2274.594971,246.863052 2281.793945,254.899628 2289.770020,262.673401 
	C2316.175049,227.062653 2351.687988,205.357101 2395.753418,196.371643 
	C2395.753418,337.896851 2395.753418,478.660553 2395.753418,619.427246 
	C2371.416260,623.561951 2313.992188,588.257935 2289.617676,554.162842 
	C2284.382812,559.639526 2279.295898,565.267578 2273.879639,570.558716 
	C2262.908691,581.275940 2250.609863,590.267273 2237.033203,597.397278 
	C2230.392090,600.885071 2223.462891,603.824402 2216.337402,607.245483 
M2232.345215,468.970337 
	C2235.223877,465.823853 2238.219482,462.775635 2240.962158,459.514832 
	C2257.902588,439.375519 2263.756348,416.352325 2257.925049,390.706024 
	C2253.610596,371.730713 2243.465332,355.869293 2227.788818,344.594360 
	C2209.587646,331.503357 2189.219238,325.179840 2166.320557,329.927429 
	C2145.276367,334.290527 2128.468750,344.921417 2115.991211,362.335327 
	C2103.362793,379.959808 2098.404541,399.460358 2101.979736,421.019623 
	C2105.664795,443.240143 2116.764648,461.071350 2134.997803,473.858032 
	C2150.626953,484.818665 2168.120361,490.334534 2187.750732,488.120483 
	C2204.482178,486.233368 2219.002686,480.003387 2232.345215,468.970337 
z"/>
<path fill="#000000" opacity="1.000000" stroke="none" 
	d="
M1514.691772,261.811768 
	C1527.227173,248.390671 1540.128540,235.918533 1555.374390,226.156479 
	C1575.379761,213.346939 1596.755615,204.058212 1620.354980,199.933441 
	C1633.844849,197.575592 1647.368286,196.199585 1660.948120,197.121414 
	C1682.182007,198.562836 1702.698120,203.228745 1722.434937,211.651749 
	C1736.926147,217.836075 1750.283936,225.850250 1762.503540,235.445663 
	C1772.702881,243.454758 1781.508911,253.238129 1791.119507,262.414642 
	C1804.150391,246.070328 1819.307861,230.953354 1837.936157,219.409042 
	C1856.113159,208.144394 1875.574219,200.754974 1896.797607,196.609512 
	C1896.797607,337.888763 1896.797607,478.520050 1896.797607,620.457520 
	C1852.535889,612.075562 1817.614136,589.425842 1790.779053,554.051331 
	C1777.501587,568.958496 1763.522339,582.424438 1746.715454,592.768677 
	C1732.179688,601.715088 1716.884888,608.977478 1700.333374,613.087708 
	C1689.931641,615.670776 1679.274780,617.436096 1668.632446,618.772400 
	C1660.316650,619.816589 1651.827148,620.188477 1643.449707,619.888428 
	C1624.378662,619.205322 1605.948120,615.062866 1588.194580,608.017517 
	C1567.112305,599.651123 1548.521362,587.483948 1531.635376,572.318359 
	C1516.198608,558.454346 1503.848877,542.287720 1493.278198,524.643677 
	C1481.518433,505.014465 1473.532104,483.786835 1468.403198,461.575531 
	C1466.162476,451.871246 1464.973755,441.845551 1464.219482,431.896667 
	C1463.307739,419.869843 1462.842163,407.757446 1463.125244,395.704193 
	C1463.524048,378.720184 1466.480713,362.042084 1470.964355,345.624146 
	C1475.154053,330.282623 1480.388550,315.265686 1488.340820,301.558929 
	C1495.761719,288.767761 1504.686523,276.849182 1512.940186,264.540344 
	C1513.476685,263.739960 1513.932617,262.885529 1514.691772,261.811768 
M1747.036743,453.579712 
	C1759.485474,436.057861 1763.461548,416.623169 1759.995605,395.566406 
	C1755.710083,369.531250 1741.332520,350.627350 1718.526367,338.000397 
	C1702.155273,328.936401 1684.578247,326.090271 1666.249878,330.082947 
	C1655.220703,332.485504 1644.867188,336.876251 1635.756348,343.754242 
	C1623.534424,352.980713 1613.639282,364.296112 1608.280640,378.685486 
	C1604.909912,387.737183 1602.786987,397.375488 1601.245361,406.934662 
	C1600.481201,411.671814 1601.935425,416.902740 1603.001587,421.775604 
	C1607.846313,443.919220 1618.792603,462.379303 1637.974121,474.864258 
	C1653.374756,484.888275 1670.300293,491.121277 1689.145508,487.876221 
	C1697.589233,486.422241 1706.103271,484.385254 1714.049438,481.252930 
	C1727.737915,475.856781 1738.087158,465.857849 1747.036743,453.579712 
z"/>
<path fill="#000000" opacity="1.000000" stroke="none" 
	d="
M556.238159,552.737549 
	C537.252563,532.035583 522.362488,509.039429 513.262573,482.871552 
	C507.940002,467.566040 503.727264,451.613617 501.396698,435.605499 
	C499.266083,420.970673 499.075714,405.765808 500.284515,390.996704 
	C502.328918,366.018097 508.476471,341.880676 519.367859,319.015350 
	C527.469666,302.006378 537.504333,286.422791 549.491272,271.938293 
	C565.524719,252.564209 584.650391,236.818237 606.349121,224.469315 
	C623.726746,214.579575 642.284119,207.344986 662.000244,202.838333 
	C679.449463,198.849854 696.933105,196.520142 714.737366,197.084808 
	C731.877808,197.628433 748.926941,199.778992 765.257263,205.139908 
	C778.436218,209.466309 791.671448,214.092148 804.058533,220.242935 
	C820.283997,228.299667 834.956238,238.929062 848.689880,250.968155 
	C868.813416,268.608582 884.391418,289.680878 896.421997,313.232788 
	C904.675232,329.389801 911.147522,346.475250 913.976196,364.663544 
	C915.108276,371.943329 916.639343,379.161041 917.984680,386.407806 
	C918.014709,386.569366 917.992737,386.740326 917.998474,386.906799 
	C918.332153,396.615417 919.764160,406.439819 918.755798,416.006927 
	C917.024902,432.428345 916.035583,448.960358 911.202332,465.052948 
	C906.382629,481.100403 900.365173,496.523193 892.317505,511.135620 
	C884.241394,525.799805 874.384888,539.185974 863.061096,551.606140 
	C846.894104,569.338501 828.229431,583.643738 807.168823,594.988892 
	C788.312439,605.146545 768.434692,612.065674 747.334717,616.130920 
	C731.109558,619.256897 714.853333,620.770020 698.503296,619.802185 
	C686.802368,619.109436 675.075378,617.201111 663.600403,614.722656 
	C645.101807,610.727356 627.200378,604.433533 610.901367,594.799927 
	C598.157898,587.267944 586.134766,578.429993 574.268616,569.535828 
	C567.826843,564.707397 562.381409,558.549683 556.238159,552.737549 
M780.042419,375.448853 
	C763.534180,336.471436 716.656372,318.230408 679.311035,334.764709 
	C640.746643,351.838715 618.608643,399.734131 637.773560,440.645630 
	C655.798157,479.122803 700.426086,499.320007 738.348633,482.309052 
	C780.534851,463.385559 798.065125,416.333344 780.042419,375.448853 
z"/>
<path fill="#272728" opacity="1.000000" stroke="none" 
	d="
M295.553558,585.475464 
	C295.592743,585.544739 295.514374,585.406250 295.553558,585.475464 
z"/>
<path fill="#FFFFFF" opacity="1.000000" stroke="none" 
	d="
M1213.742188,487.029022 
	C1207.658691,487.684235 1201.962769,489.185242 1196.379761,488.843445 
	C1178.851807,487.770325 1162.783081,482.517670 1148.723633,471.364044 
	C1133.504028,459.290070 1123.984741,443.859894 1119.612061,425.146729 
	C1115.956543,409.503174 1117.319458,394.045013 1123.388062,379.289581 
	C1131.257690,360.155457 1144.522217,345.579895 1163.199585,336.446991 
	C1171.993774,332.146698 1181.313354,329.401917 1191.328735,328.921570 
	C1224.508545,327.330139 1248.910522,341.574615 1266.073486,369.410950 
	C1274.696045,383.396057 1278.308472,398.805145 1276.789429,414.882416 
	C1275.192017,431.788940 1268.772339,446.972260 1257.492920,460.241608 
	C1245.805298,473.991089 1230.935669,481.853577 1213.742188,487.029022 
z"/>
<path fill="#FFFFFF" opacity="1.000000" stroke="none" 
	d="
M2231.983643,469.001556 
	C2219.002686,480.003387 2204.482178,486.233368 2187.750732,488.120483 
	C2168.120361,490.334534 2150.626953,484.818665 2134.997803,473.858032 
	C2116.764648,461.071350 2105.664795,443.240143 2101.979736,421.019623 
	C2098.404541,399.460358 2103.362793,379.959808 2115.991211,362.335327 
	C2128.468750,344.921417 2145.276367,334.290527 2166.320557,329.927429 
	C2189.219238,325.179840 2209.587646,331.503357 2227.788818,344.594360 
	C2243.465332,355.869293 2253.610596,371.730713 2257.925049,390.706024 
	C2263.756348,416.352325 2257.902588,439.375519 2240.962158,459.514832 
	C2238.219482,462.775635 2235.223877,465.823853 2231.983643,469.001556 
z"/>
<path fill="#FFFFFF" opacity="1.000000" stroke="none" 
	d="
M1747.004395,453.948364 
	C1738.087158,465.857849 1727.737915,475.856781 1714.049438,481.252930 
	C1706.103271,484.385254 1697.589233,486.422241 1689.145508,487.876221 
	C1670.300293,491.121277 1653.374756,484.888275 1637.974121,474.864258 
	C1618.792603,462.379303 1607.846313,443.919220 1603.001587,421.775604 
	C1601.935425,416.902740 1600.481201,411.671814 1601.245361,406.934662 
	C1602.786987,397.375488 1604.909912,387.737183 1608.280640,378.685486 
	C1613.639282,364.296112 1623.534424,352.980713 1635.756348,343.754242 
	C1644.867188,336.876251 1655.220703,332.485504 1666.249878,330.082947 
	C1684.578247,326.090271 1702.155273,328.936401 1718.526367,338.000397 
	C1741.332520,350.627350 1755.710083,369.531250 1759.995605,395.566406 
	C1763.461548,416.623169 1759.485474,436.057861 1747.004395,453.948364 
z"/>
<path fill="#FFFFFF" opacity="1.000000" stroke="none" 
	d="
M780.301392,375.746338 
	C798.065125,416.333344 780.534851,463.385559 738.348633,482.309052 
	C700.426086,499.320007 655.798157,479.122803 637.773560,440.645630 
	C618.608643,399.734131 640.746643,351.838715 679.311035,334.764709 
	C716.656372,318.230408 763.534180,336.471436 780.301392,375.746338 
z"/>
</svg>